<svg width="20" height="20" viewBox="0 0 20 20" fill="none" xmlns="http://www.w3.org/2000/svg">
<path d="M8.97664 5.72783C9.29875 4.75739 10.7012 4.75739 11.0234 5.72783L12.1742 9.19517C12.3183 9.62916 12.7314 9.923 13.1976 9.923H16.9219C17.9643 9.923 18.3977 11.2287 17.5544 11.8285L14.5413 13.9714C14.1642 14.2396 14.0064 14.7151 14.1505 15.1491L15.3013 18.6164C15.6234 19.5868 14.4888 20.3938 13.6455 19.7941L10.6325 17.6511C10.2553 17.3829 9.74466 17.3829 9.36753 17.6511L6.35449 19.7941C5.5112 20.3938 4.37655 19.5868 4.69866 18.6164L5.84954 15.1491C5.99359 14.7151 5.83579 14.2396 5.45866 13.9714L2.44561 11.8285C1.60232 11.2287 2.03572 9.923 3.07808 9.923H6.80241C7.26857 9.923 7.68171 9.62916 7.82576 9.19517L8.97664 5.72783Z" fill="#EFB215"/>
<path d="M15 6L17 4" stroke="#EFB215" stroke-width="2" stroke-linecap="round"/>
<path d="M5 6L3 4" stroke="#EFB215" stroke-width="2" stroke-linecap="round"/>
<path d="M10 2V1" stroke="#EFB215" stroke-width="2" stroke-linecap="round"/>
</svg>
