<svg width="17" height="20" viewBox="0 0 17 20" fill="none" xmlns="http://www.w3.org/2000/svg">
<path d="M16.077 7.37126C15.9327 7.1936 15.7176 7.09229 15.49 7.09229H11.2561L13.4035 3.30809C13.5423 3.02217 13.4896 2.68352 13.2717 2.45312L10.8369 0.237335C10.6954 0.0860513 10.4983 0 10.2901 0H10.2873C10.0819 0 9.88482 0.0832755 9.74048 0.233171L3.68287 6.70783C3.4372 6.96321 3.1499 7.17556 2.83485 7.33656L1.40528 8.06522C0.795983 8.36085 0.646087 8.75502 0.646087 9.24079V19.238C0.646087 19.6572 0.986128 19.9972 1.40528 19.9972H13.2717C13.6339 19.9972 13.9448 19.7418 14.0156 19.3879L16.2339 8.00415C16.2797 7.77931 16.2214 7.54614 16.077 7.37126Z" fill="#6C7C93"/>
</svg>
