<svg width="20" height="20" viewBox="0 0 20 20" fill="none" xmlns="http://www.w3.org/2000/svg">
<path fill-rule="evenodd" clip-rule="evenodd" d="M19.7376 4.25625C19.4751 1.68125 17.2376 0 14.6751 0H5.30006C2.74381 0 0.525065 1.68125 0.262565 4.25625C0.0792615 6.16525 -0.00834815 8.08224 6.45338e-05 10C-0.00834815 11.9178 0.0792615 13.8347 0.262565 15.7438C0.525065 18.3188 2.76256 20 5.32506 20H14.7001C17.2813 20 19.5001 18.3188 19.7626 15.7438C19.9375 13.8343 20.0168 11.9173 20.0001 10C20.0085 8.08224 19.9209 6.16525 19.7376 4.25625ZM16.3751 5.55625L12.6251 9.30625C11.9219 10.0085 10.9688 10.403 9.97506 10.403C8.98131 10.403 8.02819 10.0085 7.32506 9.30625L3.57506 5.55625C3.3949 5.37277 3.29395 5.1259 3.29395 4.86875C3.29395 4.6116 3.3949 4.36473 3.57506 4.18125C3.66511 4.09054 3.77222 4.01856 3.89021 3.96943C4.0082 3.9203 4.13475 3.89501 4.26256 3.89501C4.39038 3.89501 4.51692 3.9203 4.63492 3.96943C4.75291 4.01856 4.86002 4.09054 4.95006 4.18125L8.70006 7.93125C9.03942 8.26712 9.4976 8.45552 9.97506 8.45552C10.4525 8.45552 10.9107 8.26712 11.2501 7.93125L15.0001 4.18125C15.0901 4.09054 15.1972 4.01856 15.3152 3.96943C15.4332 3.9203 15.5598 3.89501 15.6876 3.89501C15.8154 3.89501 15.9419 3.9203 16.0599 3.96943C16.1779 4.01856 16.285 4.09054 16.3751 4.18125C16.5552 4.36473 16.6562 4.6116 16.6562 4.86875C16.6562 5.1259 16.5552 5.37277 16.3751 5.55625Z" fill="#6C7C93"/>
</svg>
