<svg width="14" height="20" viewBox="0 0 14 20" fill="none" xmlns="http://www.w3.org/2000/svg">
<path fill-rule="evenodd" clip-rule="evenodd" d="M2 0C0.895431 0 0 0.895431 0 2V18C0 19.1046 0.89543 20 2 20H12C13.1046 20 14 19.1046 14 18V2C14 0.895431 13.1046 0 12 0H2ZM7 19C7.55228 19 8 18.5523 8 18C8 17.4477 7.55228 17 7 17C6.44772 17 6 17.4477 6 18C6 18.5523 6.44772 19 7 19ZM6 1.5C6 1.22386 6.22386 1 6.5 1H7.5C7.77614 1 8 1.22386 8 1.5C8 1.77614 7.77614 2 7.5 2H6.5C6.22386 2 6 1.77614 6 1.5ZM2.5 3C2.22386 3 2 3.22386 2 3.5V15.5C2 15.7761 2.22386 16 2.5 16H11.5C11.7761 16 12 15.7761 12 15.5V3.5C12 3.22386 11.7761 3 11.5 3H2.5Z" fill="#6C7C93"/>
</svg>
